<?xml version="1.0" encoding="UTF-8" standalone="no"?>
<!-- Created with Inkscape (http://www.inkscape.org/) -->

<svg
   xmlns:dc="http://purl.org/dc/elements/1.1/"
   xmlns:cc="http://creativecommons.org/ns#"
   xmlns:rdf="http://www.w3.org/1999/02/22-rdf-syntax-ns#"
   xmlns:svg="http://www.w3.org/2000/svg"
   xmlns="http://www.w3.org/2000/svg"
   xmlns:sodipodi="http://sodipodi.sourceforge.net/DTD/sodipodi-0.dtd"
   xmlns:inkscape="http://www.inkscape.org/namespaces/inkscape"
   width="744.09448819"
   height="1052.3622047"
   id="svg2"
   version="1.1"
   inkscape:version="0.48.2 r9819"
   sodipodi:docname="scratch1-amphib.svg">
  <defs
     id="defs4" />
  <sodipodi:namedview
     id="base"
     pagecolor="#ffffff"
     bordercolor="#666666"
     borderopacity="1.0"
     inkscape:pageopacity="0.0"
     inkscape:pageshadow="2"
     inkscape:zoom="0.7"
     inkscape:cx="426.67177"
     inkscape:cy="527.36173"
     inkscape:document-units="px"
     inkscape:current-layer="layer1"
     showgrid="false"
     inkscape:window-width="823"
     inkscape:window-height="968"
     inkscape:window-x="834"
     inkscape:window-y="26"
     inkscape:window-maximized="0" />
  <metadata
     id="metadata7">
    <rdf:RDF>
      <cc:Work
         rdf:about="">
        <dc:format>image/svg+xml</dc:format>
        <dc:type
           rdf:resource="http://purl.org/dc/dcmitype/StillImage" />
        <dc:title></dc:title>
      </cc:Work>
    </rdf:RDF>
  </metadata>
  <g
     inkscape:label="Layer 1"
     inkscape:groupmode="layer"
     id="layer1">
    <path
       sodipodi:type="arc"
       style="fill:#ff0000;fill-rule:evenodd;stroke:#000000;stroke-width:1px;stroke-linecap:butt;stroke-linejoin:miter;stroke-opacity:1"
       id="path2985"
       sodipodi:cx="232.14285"
       sodipodi:cy="233.07646"
       sodipodi:rx="60.714287"
       sodipodi:ry="57.857143"
       d="m 292.85714,233.07646 a 60.714287,57.857143 0 1 1 -121.42857,0 60.714287,57.857143 0 1 1 121.42857,0 z"
       transform="translate(-67.142853,12.857143)" />
    <path
       sodipodi:type="arc"
       style="fill:#ff0000;fill-rule:evenodd;stroke:#000000;stroke-width:1px;stroke-linecap:butt;stroke-linejoin:miter;stroke-opacity:1"
       id="path2987"
       sodipodi:cx="616.42859"
       sodipodi:cy="239.50504"
       sodipodi:rx="62.142857"
       sodipodi:ry="61.42857"
       d="m 678.57145,239.50504 a 62.142857,61.42857 0 1 1 -124.28572,0 62.142857,61.42857 0 1 1 124.28572,0 z" />
    <path
       style="fill:none;stroke:#000000;stroke-width:0.95857328px;stroke-linecap:butt;stroke-linejoin:miter;stroke-opacity:1"
       d="m 217.12215,162.52859 78.09928,76.09332 49.69954,-22.04882 183.17831,11.21385 154.77858,-69.76053 z"
       id="path2989"
       inkscape:connector-curvature="0" />
    <path
       style="fill:none;stroke:#000000;stroke-width:3.46698928;stroke-linecap:butt;stroke-linejoin:miter;stroke-miterlimit:4;stroke-opacity:1;stroke-dasharray:none"
       d="m 167.26437,246.79234 c 12.99616,-20.21694 31.75116,-14.1161 31.75116,-14.1161 38.28179,5.79282 49.01683,-25.48436 49.01683,-25.48436"
       id="path3023"
       inkscape:connector-curvature="0" />
    <path
       style="fill:none;stroke:#000000;stroke-width:5.62984037;stroke-linecap:butt;stroke-linejoin:miter;stroke-miterlimit:4;stroke-opacity:1;stroke-dasharray:none"
       d="m 523.17206,213.71841 c 80.73826,-26.66245 99.37016,28.32886 99.37016,28.32886"
       id="path3793"
       inkscape:connector-curvature="0" />
    <path
       style="stroke-width:5;stroke-miterlimit:4;stroke-dasharray:none"
       id="path3814"
       d="m 465.06918,694.31178 c -1.80983,7.30746 -0.38004,14.90653 0.61414,22.22226 5.17998,28.62815 7.05825,57.68022 9.20738,86.64926 2.51336,33.98848 7.38098,67.727 13.81825,101.17687 3.18249,16.44173 7.9651,32.49894 11.98048,48.73995 0.70711,2.36382 0.57318,4.85276 1.13933,7.23538 0,0 -18.72734,9.88255 -18.72734,9.88255 l 0,0 c -0.17958,-2.5311 -8e-4,-5.05419 -0.25564,-7.5832 -2.52351,-16.83921 -6.13906,-33.49091 -9.25738,-50.2245 -5.78869,-33.76355 -10.10457,-67.74127 -12.78501,-101.90083 -2.64207,-28.46765 -5.11192,-57.08908 -12.26837,-84.86478 -1.53031,-7.25499 -3.4377,-14.62375 -2.51739,-22.09476 0,0 19.05155,-9.2382 19.05155,-9.2382 z"
       inkscape:connector-curvature="0" />
    <path
       style="stroke-width:5;stroke-miterlimit:4;stroke-dasharray:none"
       id="path3816"
       d="m 512.07008,697.47166 c -5.3512,14.99313 -6.58645,31.11766 -7.61837,46.87681 -1.44754,40.46085 -0.13771,80.97892 1.3362,121.42253 0.86804,18.65111 1.85708,37.30132 2.21722,55.97125 0.10828,3.51582 0.7403,6.97977 1.09042,10.47271 0.18552,3.06791 0.223,6.14209 0.25143,9.21467 -0.1962,2.91711 0.36485,5.76284 0.80331,8.62757 0.29212,1.92521 0.4189,3.86804 0.52376,5.81047 0,0 -18.67423,9.62691 -18.67423,9.62691 l 0,0 c -0.0768,-1.88025 -0.16794,-3.76189 -0.42143,-5.6285 -0.4219,-2.95961 -1.14505,-5.88731 -0.92288,-8.89842 -0.009,-3.01074 -0.007,-6.0258 -0.23144,-9.02995 -0.28313,-3.67449 -0.77553,-7.34519 -0.53282,-11.04028 1.58622,-19.31063 2.33605,-38.6885 2.11873,-58.06639 -0.20982,-21.85899 -0.6236,-43.68837 -1.47923,-65.53336 -0.25602,-6.53648 -1.46898,-32.15213 -1.65492,-39.58529 -0.12877,-5.14798 -0.0812,-10.29885 -0.12185,-15.44827 0.0785,-4.34038 0.0509,-8.68399 0.23563,-13.02114 0.46896,-11.00735 1.92932,-21.97994 3.97107,-32.79683 0,0 19.1094,-8.97449 19.1094,-8.97449 z"
       inkscape:connector-curvature="0" />
    <path
       style="stroke-width:5;stroke-miterlimit:4;stroke-dasharray:none"
       id="path3818"
       d="m 469.1127,700.03158 c 3.48961,-0.50486 7.01709,-0.83331 10.53566,-0.56474 4.24403,0.64375 8.0216,2.5645 11.63294,4.7784 2.95307,2.23038 6.19929,3.74939 9.81549,4.46884 0.46342,-0.0277 0.92685,-0.0555 1.39028,-0.0832 0,0 -17.04954,12.24355 -17.04954,12.24355 l 0,0 c -0.53218,-0.0829 -1.06435,-0.16584 -1.59653,-0.24877 -3.65638,-1.06397 -6.91175,-2.88712 -10.03449,-5.05651 -3.43138,-1.94878 -7.00811,-3.70898 -11.02593,-3.93411 -3.53819,0.0373 -7.10725,0.32084 -10.52622,1.28743 0,0 16.85834,-12.89087 16.85834,-12.89087 z"
       inkscape:connector-curvature="0" />
    <path
       style="stroke-width:5;stroke-miterlimit:4;stroke-dasharray:none"
       id="path3820"
       d="m 138.00638,705.5521 c -0.3778,6.28171 -0.86963,12.53113 -0.84188,18.82882 0.14528,5.08095 0.43773,10.29479 2.08002,15.14229 1.84396,3.63408 4.1886,7.02995 6.58117,10.32762 1.93004,2.9477 4.06091,5.79783 5.36504,9.09063 1.28774,2.82174 1.77094,5.88233 2.4882,8.87461 0.53978,3.13111 1.34717,6.17018 2.40724,9.16158 0.71679,1.92292 1.1161,3.92803 1.43783,5.94692 0,0 -18.57566,9.80429 -18.57566,9.80429 l 0,0 c -0.24651,-1.90003 -0.56073,-3.79126 -1.21328,-5.60244 -1.07669,-3.06283 -2.02364,-6.14106 -2.47958,-9.36813 -0.70105,-2.89971 -1.23417,-5.86147 -2.44603,-8.60468 -1.10804,-3.15905 -3.08591,-5.92173 -4.84732,-8.74246 -2.50789,-3.47194 -5.11651,-6.95657 -6.98492,-10.8192 -1.71818,-5.11852 -1.82895,-10.62231 -1.90635,-15.97851 -0.0449,-6.15544 0.40491,-12.30252 0.0656,-18.44664 0,0 18.86991,-9.6147 18.86991,-9.6147 z"
       inkscape:connector-curvature="0" />
    <path
       style="stroke-width:5;stroke-miterlimit:4;stroke-dasharray:none"
       id="path3822"
       d="m 150.84122,705.73435 c -0.47321,6.81435 -0.34926,13.63697 -0.0728,20.45504 0.49569,7.44804 1.56085,14.83946 2.33845,22.25962 0.18673,3.53634 0.99013,6.98134 1.84104,10.40254 0.53858,3.73115 2.14183,7.09805 3.69266,10.49507 1.14439,2.8575 0.56319,1.44636 1.74223,4.23397 0,0 -18.10821,10.16002 -18.10821,10.16002 l 0,0 c -1.18198,-2.78662 -0.60608,-1.39895 -1.72863,-4.1626 -1.63777,-3.48622 -3.50667,-6.88457 -4.00621,-10.75452 -0.94653,-3.54739 -1.76852,-7.14735 -1.77775,-10.84483 -0.40138,-7.53985 -1.10094,-15.05659 -1.85968,-22.5681 -0.42942,-6.69327 -0.62246,-13.38483 -0.88636,-20.08425 0,0 18.82529,-9.59196 18.82529,-9.59196 z"
       inkscape:connector-curvature="0" />
  </g>
</svg>
